<svg viewBox="0 0 842 201" version="1.1" xmlns="http://www.w3.org/2000/svg" xmlns:xlink="http://www.w3.org/1999/xlink" xml:space="preserve" xmlns:serif="http://www.serif.com/">
    <g transform="matrix(6.026338,0,0,6.002401,-0.843687,-0.180072)">
        <path d="M33,31.14L25.21,31.14L22.84,25.42L9.92,25.42L7.76,31.14L0.14,31.14L11.78,2.26L20.12,2.26L33,31.14ZM16.11,9.14L11.83,20.39L20.72,20.39L16.11,9.14Z" style="fill-rule:nonzero;"/>
    </g>
    <g transform="matrix(6.026338,0,0,6.002401,-0.843687,-0.180072)">
        <path d="M61.1,2.26L67.37,2.26L67.37,31.14L60.17,31.14L60.17,13.14L52.38,22.2L51.28,22.2L43.49,13.1L43.49,31.1L36.29,31.1L36.29,2.26L42.56,2.26L51.83,13L61.1,2.26Z" style="fill-rule:nonzero;"/>
    </g>
    <g transform="matrix(6.026338,0,0,6.002401,-0.843687,-0.180072)">
        <path d="M85.61,2.26C96.15,2.26 101.61,8.82 101.61,16.74C101.61,25.04 96.36,31.14 84.84,31.14L72.86,31.14L72.86,2.26L85.61,2.26ZM80.06,25.85L84.76,25.85C92,25.85 94.16,20.94 94.16,16.7C94.16,11.7 91.49,7.55 84.68,7.55L80.06,7.55L80.06,25.85Z" style="fill-rule:nonzero;"/>
    </g>
    <g transform="matrix(6.026338,0,0,6.002401,0,0)">
        <path d="M130.64,9.08L115.75,9.08L106.68,0L139.72,0L139.72,33.05L130.64,23.97L130.64,9.08Z" style="fill-rule:nonzero;"/>
    </g>
    <g transform="matrix(6.026338,0,0,6.002401,0,0)">
        <path d="M115.74,23.98L115.74,10.9L106.4,20.24L106.4,33.33L119.48,33.33L128.82,23.98L115.74,23.98Z" style="fill-rule:nonzero;"/>
    </g>
</svg>
