<svg xmlns="http://www.w3.org/2000/svg" width="800" height="244" viewBox="0 0 800 244" role="img" font-family='-apple-system, BlinkMacSystemFont, "Segoe UI", "Noto Sans", Helvetica, Arial, sans-serif'>
<title>The models that run on your computer</title>
<rect x="0.5" y="0.5" width="799" height="243" rx="12" fill="#ffffff" stroke="#e5e7eb"/>
<text x="24" y="36" font-size="16" fill="#1f2937" font-weight="600">The models that run on your computer</text>
<text x="24" y="56" font-size="12" fill="#4b5563">The Egyptian Arabic–English clips of the Perle benchmark, at 16 kHz.</text>
<text x="206" y="86" font-size="13" fill="#1f2937" font-weight="600">Word error rate, %</text>
<text x="206" y="101" font-size="11" fill="#6b7280">lower is better</text>
<text x="540" y="86" font-size="13" fill="#1f2937" font-weight="600">English terms kept, %</text>
<text x="540" y="101" font-size="11" fill="#6b7280">higher is better</text>
<text x="196" y="131.5" font-size="13" fill="#1f2937" text-anchor="end">Cohere Transcribe Arabic</text>
<text x="196" y="161.5" font-size="13" fill="#1f2937" text-anchor="end">whisper-medium (default)</text>
<text x="196" y="191.5" font-size="13" fill="#1f2937" text-anchor="end">Whisper large-v3 + hint</text>
<g data-axis="x" data-scale="0 25 206 456">
<line x1="206" y1="112" x2="206" y2="202" stroke="#9ca3af" data-tick="0"/>
<text x="206" y="218" font-size="11" fill="#6b7280" text-anchor="middle" data-tick="0">0</text>
<line x1="256" y1="112" x2="256" y2="202" stroke="#e5e7eb" data-tick="5"/>
<text x="256" y="218" font-size="11" fill="#6b7280" text-anchor="middle" data-tick="5">5</text>
<line x1="306" y1="112" x2="306" y2="202" stroke="#e5e7eb" data-tick="10"/>
<text x="306" y="218" font-size="11" fill="#6b7280" text-anchor="middle" data-tick="10">10</text>
<line x1="356" y1="112" x2="356" y2="202" stroke="#e5e7eb" data-tick="15"/>
<text x="356" y="218" font-size="11" fill="#6b7280" text-anchor="middle" data-tick="15">15</text>
<line x1="406" y1="112" x2="406" y2="202" stroke="#e5e7eb" data-tick="20"/>
<text x="406" y="218" font-size="11" fill="#6b7280" text-anchor="middle" data-tick="20">20</text>
<line x1="456" y1="112" x2="456" y2="202" stroke="#e5e7eb" data-tick="25"/>
<text x="456" y="218" font-size="11" fill="#6b7280" text-anchor="middle" data-tick="25">25</text>
<path d="M206,119 L336.26,119 Q340.26,119 340.26,123 L340.26,131 Q340.26,135 336.26,135 L206,135 Z" fill="#0e7c7b" data-ref="summary/perle/wav16k/cohere-transcribe-arabic-07-2026-Q4_K_M/ar/wer"/>
<text x="346.26" y="131.32" font-size="12" fill="#1f2937" stroke="#ffffff" stroke-width="3" stroke-linejoin="round" paint-order="stroke"><tspan data-ref="summary/perle/wav16k/cohere-transcribe-arabic-07-2026-Q4_K_M/ar/wer" data-doc="README.md#Models|Cohere Transcribe Arabic|Word error rate, Egyptian test set">13.4</tspan>%</text>
<path d="M206,149 L387.19,149 Q391.19,149 391.19,153 L391.19,161 Q391.19,165 387.19,165 L206,165 Z" fill="#2563eb" data-ref="summary/perle/wav16k/whisper-whisper-medium-arabic-codeswitched-ct2/ar/wer"/>
<text x="397.19" y="161.32" font-size="12" fill="#1f2937" stroke="#ffffff" stroke-width="3" stroke-linejoin="round" paint-order="stroke"><tspan data-ref="summary/perle/wav16k/whisper-whisper-medium-arabic-codeswitched-ct2/ar/wer" data-doc="README.md#Models|whisper-medium code-switching (default)|Word error rate, Egyptian test set">18.5</tspan>%</text>
<path d="M206,179 L410.33,179 Q414.33,179 414.33,183 L414.33,191 Q414.33,195 410.33,195 L206,195 Z" fill="#8a94a3" data-ref="summary/perle/wav16k/whisper-large-v3/ar-p3c2e92/wer"/>
<text x="420.33" y="191.32" font-size="12" fill="#1f2937" stroke="#ffffff" stroke-width="3" stroke-linejoin="round" paint-order="stroke"><tspan data-ref="summary/perle/wav16k/whisper-large-v3/ar-p3c2e92/wer" data-doc="README.md#Models|Whisper large-v3 with an Egyptian style hint|Word error rate, Egyptian test set">20.8</tspan>%</text>
</g>
<g data-axis="x" data-scale="0 100 540 740">
<line x1="540" y1="112" x2="540" y2="202" stroke="#9ca3af" data-tick="0"/>
<text x="540" y="218" font-size="11" fill="#6b7280" text-anchor="middle" data-tick="0">0</text>
<line x1="590" y1="112" x2="590" y2="202" stroke="#e5e7eb" data-tick="25"/>
<text x="590" y="218" font-size="11" fill="#6b7280" text-anchor="middle" data-tick="25">25</text>
<line x1="640" y1="112" x2="640" y2="202" stroke="#e5e7eb" data-tick="50"/>
<text x="640" y="218" font-size="11" fill="#6b7280" text-anchor="middle" data-tick="50">50</text>
<line x1="690" y1="112" x2="690" y2="202" stroke="#e5e7eb" data-tick="75"/>
<text x="690" y="218" font-size="11" fill="#6b7280" text-anchor="middle" data-tick="75">75</text>
<line x1="740" y1="112" x2="740" y2="202" stroke="#e5e7eb" data-tick="100"/>
<text x="740" y="218" font-size="11" fill="#6b7280" text-anchor="middle" data-tick="100">100</text>
<path d="M540,119 L690.19,119 Q694.19,119 694.19,123 L694.19,131 Q694.19,135 690.19,135 L540,135 Z" fill="#0e7c7b" data-ref="summary/perle/wav16k/cohere-transcribe-arabic-07-2026-Q4_K_M/ar/en_kept"/>
<text x="700.19" y="131.32" font-size="12" fill="#1f2937" stroke="#ffffff" stroke-width="3" stroke-linejoin="round" paint-order="stroke"><tspan data-ref="summary/perle/wav16k/cohere-transcribe-arabic-07-2026-Q4_K_M/ar/en_kept" data-doc="README.md#Models|Cohere Transcribe Arabic|English terms kept in English">77</tspan>%</text>
<path d="M540,149 L715.89,149 Q719.89,149 719.89,153 L719.89,161 Q719.89,165 715.89,165 L540,165 Z" fill="#2563eb" data-ref="summary/perle/wav16k/whisper-whisper-medium-arabic-codeswitched-ct2/ar/en_kept"/>
<text x="725.89" y="161.32" font-size="12" fill="#1f2937" stroke="#ffffff" stroke-width="3" stroke-linejoin="round" paint-order="stroke"><tspan data-ref="summary/perle/wav16k/whisper-whisper-medium-arabic-codeswitched-ct2/ar/en_kept" data-doc="README.md#Models|whisper-medium code-switching (default)|English terms kept in English">90</tspan>%</text>
<path d="M540,179 L712.54,179 Q716.54,179 716.54,183 L716.54,191 Q716.54,195 712.54,195 L540,195 Z" fill="#8a94a3" data-ref="summary/perle/wav16k/whisper-large-v3/ar-p3c2e92/en_kept"/>
<text x="722.54" y="191.32" font-size="12" fill="#1f2937" stroke="#ffffff" stroke-width="3" stroke-linejoin="round" paint-order="stroke"><tspan data-ref="summary/perle/wav16k/whisper-large-v3/ar-p3c2e92/en_kept" data-doc="README.md#Models|Whisper large-v3 with an Egyptian style hint|English terms kept in English">88</tspan>%</text>
</g>
</svg>
